<?xml version="1.0" encoding="UTF-8" standalone="no"?>
<!DOCTYPE svg PUBLIC "-//W3C//DTD SVG 1.1//EN" "http://www.w3.org/Graphics/SVG/1.1/DTD/svg11.dtd">
<!-- Generato da Microsoft Visio, esportazione SVG Use case employee.svg Page-1 -->
<svg xmlns="http://www.w3.org/2000/svg" xmlns:xlink="http://www.w3.org/1999/xlink" xmlns:ev="http://www.w3.org/2001/xml-events"
		xmlns:v="http://schemas.microsoft.com/visio/2003/SVGExtensions/" width="11.6929in" height="8.26772in"
		viewBox="0 0 841.89 595.276" xml:space="preserve" color-interpolation-filters="sRGB" class="st7">
	<v:documentProperties v:langID="1040" v:metric="true" v:viewMarkup="false">
		<v:userDefs>
			<v:ud v:nameU="msvNoAutoConnect" v:prompt="" v:val="VT0(0):26"/>
		</v:userDefs>
	</v:documentProperties>

	<style type="text/css">
	<![CDATA[
		.st1 {fill:#ffffff;stroke:#5b9bd5;stroke-linecap:round;stroke-linejoin:round;stroke-width:0.5}
		.st2 {fill:#5b9ad4;font-family:Calibri;font-size:1.00001em}
		.st3 {stroke:#5592c9;stroke-linecap:round;stroke-linejoin:round;stroke-width:0.5}
		.st4 {fill:#dee6f3;stroke:#ffffff;stroke-linecap:round;stroke-linejoin:round;stroke-width:0.5}
		.st5 {fill:#5899d4;font-family:Calibri;font-size:1.00001em}
		.st6 {font-size:1em}
		.st7 {fill:none;fill-rule:evenodd;font-size:12px;overflow:visible;stroke-linecap:square;stroke-miterlimit:3}
	]]>
	</style>

	<g v:mID="0" v:index="1" v:groupContext="foregroundPage">
		<v:userDefs>
			<v:ud v:nameU="msvThemeOrder" v:val="VT0(0):26"/>
		</v:userDefs>
		<title>Pagina 1</title>
		<v:pageProperties v:drawingScale="0.0393701" v:pageScale="0.0393701" v:drawingUnits="24" v:shadowOffsetX="8.50394"
				v:shadowOffsetY="-8.50394"/>
		<v:layer v:name="Connettore" v:index="0"/>
		<g id="shape1-1" v:mID="1" v:groupContext="shape" transform="translate(85.0394,-382.677)">
			<title>Attore</title>
			<desc>Human</desc>
			<v:userDefs>
				<v:ud v:nameU="visVersion" v:prompt="" v:val="VT0(15):26"/>
			</v:userDefs>
			<v:textBlock v:margins="rect(4,4,4,4)" v:tabSpace="42.5197"/>
			<v:textRect cx="17.0079" cy="606.477" width="46.14" height="22.4037"/>
			<path d="M6.8 595.28 L6.8 559.84 L6.8 574.02 L0 574.02 L0 545.67 L3.4 542.13 L30.61 542.13 L34.02 545.67 L34.02 574.02
						 L27.21 574.02 L27.21 559.84 L27.21 595.28 L17.01 595.28 L17.01 566.93 L17.01 595.28 L6.8 595.28 ZM24.09
						 531.5 A7.08661 7.08661 -180 1 0 9.92 531.5 A7.08661 7.08661 -180 1 0 24.09 531.5 Z" class="st1"/>
			<text x="-0.7" y="610.08" class="st2" v:langID="1040"><v:paragraph v:horizAlign="1"/><v:tabList/>Human</text>		</g>
		<g id="shape3-4" v:mID="3" v:groupContext="shape" v:layerMember="0" transform="translate(119.055,-425.197)">
			<title>Connettore dinamico</title>
			<v:userDefs>
				<v:ud v:nameU="visVersion" v:prompt="" v:val="VT0(15):26"/>
			</v:userDefs>
			<path d="M0 602.36 L84.05 602.36" class="st3"/>
		</g>
		<g id="shape2-7" v:mID="2" v:groupContext="shape" transform="translate(203.101,-401.102)">
			<title>Use Case</title>
			<desc>Login</desc>
			<v:userDefs>
				<v:ud v:nameU="visVersion" v:prompt="" v:val="VT0(15):26"/>
			</v:userDefs>
			<v:textBlock v:margins="rect(4,4,4,4)" v:tabSpace="42.5197"/>
			<v:textRect cx="56.6929" cy="578.268" width="113.39" height="34.0157"/>
			<ellipse cx="56.6929" cy="578.268" rx="56.6929" ry="17.0079" class="st4"/>
			<text x="43.65" y="581.87" class="st5" v:langID="1040"><v:paragraph v:horizAlign="1"/><v:tabList/>Login</text>		</g>
		<g id="shape5-10" v:mID="5" v:groupContext="shape" transform="translate(185.392,-293.824)">
			<title>Use Case.5</title>
			<desc>Change availability of the car</desc>
			<v:userDefs>
				<v:ud v:nameU="visVersion" v:prompt="" v:val="VT0(15):26"/>
			</v:userDefs>
			<v:textBlock v:margins="rect(4,4,4,4)" v:tabSpace="42.5197"/>
			<v:textRect cx="74.4016" cy="571.126" width="148.81" height="48.2999"/>
			<ellipse cx="74.4016" cy="571.126" rx="74.4016" ry="24.15" class="st4"/>
			<text x="28.76" y="567.53" class="st5" v:langID="1040"><v:paragraph v:horizAlign="1"/><v:tabList/>Change availability <v:newlineChar/><tspan
						x="51.04" dy="1.2em" class="st6">of the car</tspan></text>		</g>
		<g id="shape7-14" v:mID="7" v:groupContext="shape" transform="translate(185.392,-184.252)">
			<title>Use Case.7</title>
			<desc>Know cars that he/she has to take care</desc>
			<v:userDefs>
				<v:ud v:nameU="visVersion" v:prompt="" v:val="VT0(15):26"/>
			</v:userDefs>
			<v:textBlock v:margins="rect(4,4,4,4)" v:tabSpace="42.5197"/>
			<v:textRect cx="74.4016" cy="573.319" width="148.81" height="43.9137"/>
			<ellipse cx="74.4016" cy="573.319" rx="74.4016" ry="21.9569" class="st4"/>
			<text x="38.07" y="569.72" class="st5" v:langID="1040"><v:paragraph v:horizAlign="1"/><v:tabList/>Know cars that <v:newlineChar/><tspan
						x="17.4" dy="1.2em" class="st6">he/she has to take care</tspan></text>		</g>
		<g id="shape9-18" v:mID="9" v:groupContext="shape" transform="translate(85.0394,-226.772)">
			<title>Attore.9</title>
			<desc>Employee</desc>
			<v:userDefs>
				<v:ud v:nameU="visVersion" v:prompt="" v:val="VT0(15):26"/>
			</v:userDefs>
			<v:textBlock v:margins="rect(4,4,4,4)" v:tabSpace="42.5197"/>
			<v:textRect cx="17.0079" cy="606.477" width="58.93" height="22.4037"/>
			<path d="M6.8 595.28 L6.8 559.84 L6.8 574.02 L0 574.02 L0 545.67 L3.4 542.13 L30.61 542.13 L34.02 545.67 L34.02 574.02
						 L27.21 574.02 L27.21 559.84 L27.21 595.28 L17.01 595.28 L17.01 566.93 L17.01 595.28 L6.8 595.28 ZM24.09
						 531.5 A7.08661 7.08661 -180 1 0 9.92 531.5 A7.08661 7.08661 -180 1 0 24.09 531.5 Z" class="st1"/>
			<text x="-7.09" y="610.08" class="st2" v:langID="1040"><v:paragraph v:horizAlign="1"/><v:tabList/>Employee</text>		</g>
		<g id="shape10-21" v:mID="10" v:groupContext="shape" v:layerMember="0" transform="translate(119.055,-268.218)">
			<title>Associazione</title>
			<v:userDefs>
				<v:ud v:nameU="visVersion" v:prompt="" v:val="VT0(15):26"/>
			</v:userDefs>
			<path d="M0 595.28 L90.42 563.31" class="st3"/>
		</g>
		<g id="shape11-24" v:mID="11" v:groupContext="shape" v:layerMember="0" transform="translate(119.055,-256.167)">
			<title>Associazione.11</title>
			<v:userDefs>
				<v:ud v:nameU="visVersion" v:prompt="" v:val="VT0(15):26"/>
			</v:userDefs>
			<path d="M0 595.28 L93.17 628.35" class="st3"/>
		</g>
	</g>
</svg>
